<svg xmlns="http://www.w3.org/2000/svg" viewBox="0 0 560 560" fill="none" stroke-width="1.5" stroke-linecap="round" stroke-linejoin="round">
  <defs><linearGradient id="signal" x1="0" y1="0" x2="560" y2="560" gradientUnits="userSpaceOnUse"><stop stop-color="#79a9ff"/><stop offset="1" stop-color="#f17883"/></linearGradient><marker id="arrow" markerWidth="8" markerHeight="8" refX="6" refY="4" orient="auto"><path d="m2 1 3 3-3 3" stroke="#79a9ff"/></marker></defs>
  <g stroke="#79a9ff" opacity=".22"><path d="M78 74h92m230 0h80v76M64 238v94h63m294 148h79v-93"/><path d="M112 174h30v-38h46M382 421h53v-40"/><path d="M86 101v28m-14-14h28M459 226v18m-9-9h18"/></g>
  <g stroke="url(#signal)">
    <path d="M81 169v64c0 5-12 9-27 9s-27-4-27-9v-64"/>
    <ellipse cx="54" cy="169" rx="27" ry="9"/><path d="M27 190c0 5 12 9 27 9s27-4 27-9M27 211c0 5 12 9 27 9s27-4 27-9"/>
    <path d="M81 204h35v74h40" marker-end="url(#arrow)"/>
    <rect x="437" y="102" width="72" height="68" rx="10"/><path d="M452 151h44m-36-9v-12m14 12v-23m14 23v-32"/>
    <path d="M418 207h23v-25h32v-12" marker-end="url(#arrow)"/>
    <circle cx="93" cy="393" r="7"/><circle cx="42" cy="440" r="5"/><circle cx="144" cy="455" r="7"/><circle cx="174" cy="400" r="4"/>
    <path d="m88 398-42 38m52-37 41 50m-39-56 70 6m-121 43 88 11"/>
    <rect x="246" y="478" width="42" height="30" rx="8"/><rect x="334" y="478" width="42" height="30" rx="8"/><path d="M288 493h45" marker-end="url(#arrow)"/><path d="m261 493 5 5 9-10m73 0 10 10m-10 0 10-10"/>
    <path d="M198 441v52h46" marker-end="url(#arrow)"/>
  </g>
  <g fill="#f17883" stroke="none"><circle cx="473" cy="74" r="3"/><circle cx="116" cy="278" r="3"/><circle cx="421" cy="480" r="3"/></g>
</svg>
